<svg version="1.1" viewBox="0.0 0.0 164.08398950131235 100.0" fill="none" stroke="none" stroke-linecap="square" stroke-miterlimit="10" xmlns:xlink="http://www.w3.org/1999/xlink" xmlns="http://www.w3.org/2000/svg"><clipPath id="p.0"><path d="m0 0l164.08398 0l0 100.0l-164.08398 0l0 -100.0z" clip-rule="nonzero"/></clipPath><g clip-path="url(#p.0)"><path fill="#000000" fill-opacity="0.0" d="m0 0l164.08398 0l0 100.0l-164.08398 0z" fill-rule="evenodd"/><path fill="#01ffff" fill-opacity="0.7115" d="m0 5.3989825l0 0c7.286793E-15 0.97251415 18.365726 1.7608924 41.020996 1.7608924c22.655273 0 41.020996 -0.78837824 41.020996 -1.7608924l0 0c0 -0.9725137 18.36573 -1.7608922 41.021004 -1.7608922c22.655266 0 41.02099 0.7883785 41.02099 1.7608922l0 14.087139c0 -0.9725151 -18.365723 -1.7608929 -41.02099 -1.7608929c-22.655273 0 -41.021004 0.78837776 -41.021004 1.7608929c0 0.9725132 -18.365723 1.7608929 -41.020996 1.7608929c-22.65527 0 -41.020996 -0.78837967 -41.020996 -1.7608929z" fill-rule="evenodd"/><path fill="#01ffff" fill-opacity="0.7115" d="m0 34.54334l0 0c7.286793E-15 0.9725151 18.365726 1.7608948 41.020996 1.7608948c22.655273 0 41.020996 -0.78837967 41.020996 -1.7608948l0 0c0 -0.9725113 18.36573 -1.760891 41.021004 -1.760891c22.655266 0 41.02099 0.78837967 41.02099 1.760891l0 14.087139c0 -0.9725113 -18.365723 -1.760891 -41.02099 -1.760891c-22.655273 0 -41.021004 0.78837967 -41.021004 1.760891c0 0.9725151 -18.365723 1.7608948 -41.020996 1.7608948c-22.65527 0 -41.020996 -0.78837967 -41.020996 -1.7608948z" fill-rule="evenodd"/><path fill="#01ffff" fill-opacity="0.7115" d="m0 63.6877l0 0c7.286793E-15 0.9725113 18.365726 1.7608871 41.020996 1.7608871c22.655273 0 41.020996 -0.78837585 41.020996 -1.7608871l0 0c0 -0.9725151 18.36573 -1.7608948 41.021004 -1.7608948c22.655266 0 41.02099 0.78837967 41.02099 1.7608948l0 14.087135c0 -0.9725113 -18.365723 -1.7608871 -41.02099 -1.7608871c-22.655273 0 -41.021004 0.78837585 -41.021004 1.7608871c0 0.9725189 -18.365723 1.7608948 -41.020996 1.7608948c-22.65527 0 -41.020996 -0.78837585 -41.020996 -1.7608948z" fill-rule="evenodd"/></g></svg>